<mxfile host="app.diagrams.net" modified="2023-11-18T11:27:40.813Z" agent="Mozilla/5.0 (Windows NT 10.0; Win64; x64) AppleWebKit/537.36 (KHTML, like Gecko) Chrome/119.0.0.0 Safari/537.36 Edg/119.0.0.0" version="22.1.3" etag="6la-D7OAI4peY-yA_XxW" type="google">
  <diagram id="T-qoBSSUGWMh2nA2tZ6e" name="Page-1">
    <mxGraphModel grid="1" page="0" gridSize="10" guides="1" tooltips="1" connect="1" arrows="1" fold="1" pageScale="1" pageWidth="1200" pageHeight="1920" background="none" math="0" shadow="0">
      <root>
        <mxCell id="0" />
        <mxCell id="1" parent="0" />
        <mxCell id="node0" value="&lt;p style=&quot;margin:0px;margin-top:4px;text-align:center;&quot;&gt;&lt;b&gt;MainActivity&lt;/b&gt;&lt;/p&gt;&lt;hr size=&quot;1&quot;/&gt;&lt;p style=&quot;margin:0 0 0 4px;line-height:1.6;&quot;&gt;# onCreate(Bundle?): Unit&lt;/p&gt;" style="verticalAlign=top;align=left;overflow=fill;fontSize=14;fontFamily=Helvetica;html=1;rounded=0;shadow=0;comic=0;labelBackgroundColor=none;strokeWidth=1;" vertex="1" parent="1">
          <mxGeometry x="1090" y="-410" width="190" height="70" as="geometry" />
        </mxCell>
        <mxCell id="7H51laaHmQexabOe8FZq-1" value="&lt;font style=&quot;font-size: 20px;&quot;&gt;views&lt;/font&gt;" style="shape=folder;fontStyle=1;tabWidth=110;tabHeight=30;tabPosition=left;html=1;boundedLbl=1;labelInHeader=1;container=1;collapsible=0;whiteSpace=wrap;" vertex="1" parent="1">
          <mxGeometry x="-260" y="-440" width="1330" height="1240" as="geometry" />
        </mxCell>
        <mxCell id="7H51laaHmQexabOe8FZq-2" value="" style="html=1;strokeColor=none;resizeWidth=1;resizeHeight=1;fillColor=none;part=1;connectable=0;allowArrows=0;deletable=0;whiteSpace=wrap;strokeWidth=4;" vertex="1" parent="7H51laaHmQexabOe8FZq-1">
          <mxGeometry width="1330" height="868" relative="1" as="geometry">
            <mxPoint y="30" as="offset" />
          </mxGeometry>
        </mxCell>
        <mxCell id="node3" value="&lt;p style=&quot;margin:0px;margin-top:4px;text-align:center;&quot;&gt;&lt;b&gt;CarparkInfoKt&lt;/b&gt;&lt;/p&gt;&lt;hr size=&quot;1&quot;/&gt;&lt;p style=&quot;margin:0 0 0 4px;line-height:1.6;&quot;&gt;+ NearbyCarpark(CarparkAvailability, VehicleType, () -&amp;gt; Unit): Unit&lt;br/&gt;+ SortingStrategyControls(SortingStrategy, (SortingStrategy) -&amp;gt; Unit, () -&amp;gt; Unit): Unit&lt;br/&gt;+ CarparkInfo(CarparkAvailability, Modifier): Unit&lt;br/&gt;+ CarparkInfoBar(CarparkAvailability, Modifier): Unit&lt;br/&gt;+ SortingStrategyOrderChip(SortingStrategy, (SortingStrategy) -&amp;gt; Unit): Unit&lt;br/&gt;+ CarparkMinimap(CarparkAvailability, Modifier): Unit&lt;br/&gt;+ CarparkBackButton(MapViewModel, Modifier): Unit&lt;br/&gt;+ CarparkDistanceBox(CarparkAvailability, Modifier): Unit&lt;br/&gt;+ NearbyCarparkList(List&amp;lt;CarparkAvailability&amp;gt;, VehicleType, (CarparkAvailability) -&amp;gt; Unit): Unit&lt;br/&gt;+ CarparkBottomSheet(Modifier, List&amp;lt;CarparkAvailability&amp;gt;, VehicleType, SortingStrategy, NamedFilters, Boolean, () -&amp;gt; Unit, (SortingStrategy) -&amp;gt; Unit, (CarparkAvailability) -&amp;gt; Unit, (NamedFilter) -&amp;gt; Unit): Unit&lt;br/&gt;+ CarparkDetails(CarparkAvailability, List&amp;lt;Lot&amp;gt;, Modifier): Unit&lt;br/&gt;+ SortingStrategyModeChip(SortingStrategy, (SortingStrategy) -&amp;gt; Unit): Unit&lt;br/&gt;+ CarparkLotBox(CarparkAvailability, VehicleType, Modifier): Unit&lt;/p&gt;" style="verticalAlign=top;align=left;overflow=fill;fontSize=14;fontFamily=Helvetica;html=1;rounded=0;shadow=0;comic=0;labelBackgroundColor=none;strokeWidth=1;" vertex="1" parent="7H51laaHmQexabOe8FZq-1">
          <mxGeometry x="15" y="395" width="1300" height="340" as="geometry" />
        </mxCell>
        <mxCell id="node5" value="&lt;p style=&quot;margin:0px;margin-top:4px;text-align:center;&quot;&gt;&lt;b&gt;FiltersKt&lt;/b&gt;&lt;/p&gt;&lt;hr size=&quot;1&quot;/&gt;&lt;p style=&quot;margin:0 0 0 4px;line-height:1.6;&quot;&gt;- alter(Map&amp;lt;K, V&amp;gt;, K, V): Map&amp;lt;K, V&amp;gt;&lt;br/&gt;+ RenderAgencyFilter(AgencyFilter, (AgencyFilter) -&amp;gt; Unit): Unit&lt;br/&gt;+ FilterDialog(NamedFilters, Boolean, (NamedFilter) -&amp;gt; Unit, () -&amp;gt; Unit): Unit&lt;br/&gt;+ RenderVacancyFilter(VacancyFilter, (VacancyFilter) -&amp;gt; Unit): Unit&lt;/p&gt;" style="verticalAlign=top;align=left;overflow=fill;fontSize=14;fontFamily=Helvetica;html=1;rounded=0;shadow=0;comic=0;labelBackgroundColor=none;strokeWidth=1;" vertex="1" parent="7H51laaHmQexabOe8FZq-1">
          <mxGeometry x="523" y="1040" width="500" height="140" as="geometry" />
        </mxCell>
        <mxCell id="node1" value="&lt;p style=&quot;margin:0px;margin-top:4px;text-align:center;&quot;&gt;&lt;b&gt;HistoryUIKt&lt;/b&gt;&lt;/p&gt;&lt;hr size=&quot;1&quot;/&gt;&lt;p style=&quot;margin:0 0 0 4px;line-height:1.6;&quot;&gt;+ RecentSearchBar(StoredLocation, Modifier): Unit&lt;br/&gt;+ HistoryUI(Modifier): Unit&lt;br/&gt;+ HistoryInfoBar(StoredLocation, Modifier): Unit&lt;br/&gt;+ BottomShadow(Float, Float, Modifier): Unit&lt;br/&gt;+ RecentVisited(Modifier): Unit&lt;br/&gt;+ RecentVisitedBar(StoredLocation, Modifier): Unit&lt;br/&gt;+ RecentSearch(Modifier): Unit&lt;br/&gt;+ IconWithPopup(String, ImageVector, Modifier, () -&amp;gt; Unit): Unit&lt;/p&gt;" style="verticalAlign=top;align=left;overflow=fill;fontSize=14;fontFamily=Helvetica;html=1;rounded=0;shadow=0;comic=0;labelBackgroundColor=none;strokeWidth=1;" vertex="1" parent="7H51laaHmQexabOe8FZq-1">
          <mxGeometry x="601" y="751" width="420" height="230" as="geometry" />
        </mxCell>
        <mxCell id="node2" value="&lt;p style=&quot;margin:0px;margin-top:4px;text-align:center;&quot;&gt;&lt;b&gt;MapUIKt&lt;/b&gt;&lt;/p&gt;&lt;hr size=&quot;1&quot;/&gt;&lt;p style=&quot;margin:0 0 0 4px;line-height:1.6;&quot;&gt;+ MapControls(Boolean, () -&amp;gt; Unit, (ColumnScope) -&amp;gt; Unit): Unit&lt;br/&gt;+ MainMap(MapViewModel): Unit&lt;br/&gt;+ CarparkPin(Coordinate, () -&amp;gt; Unit): Unit&lt;br/&gt;+ MapboxV2(Modifier, Coordinate, Coordinate?, Coordinate?, List&amp;lt;CarparkAvailability&amp;gt;, (CarparkAvailability) -&amp;gt; Unit, () -&amp;gt; Unit, Boolean, Boolean, Boolean, Boolean): Unit&lt;br/&gt;+ MapPin(Coordinate, Painter, Long, Long, Boolean?, () -&amp;gt; Unit): Unit&lt;br/&gt;+ CarparkInfoPopup(Modifier): Unit&lt;br/&gt;+ ErrorScreen(Modifier): Unit&lt;br/&gt;+ RecenterButton(Modifier, Boolean, () -&amp;gt; Unit): Unit&lt;br/&gt;+ UserPin(Coordinate, () -&amp;gt; Unit): Unit&lt;br/&gt;+ DestinationPin(Coordinate, () -&amp;gt; Unit): Unit&lt;br/&gt;+ MapUI(Modifier, Coordinate?): Unit&lt;br/&gt;+ CarparkInfoPrompt(VehicleType, Modifier): Unit&lt;br/&gt;+ LoadingScreen(Modifier): Unit&lt;/p&gt;" style="verticalAlign=top;align=left;overflow=fill;fontSize=14;fontFamily=Helvetica;html=1;rounded=0;shadow=0;comic=0;labelBackgroundColor=none;strokeWidth=1;" vertex="1" parent="7H51laaHmQexabOe8FZq-1">
          <mxGeometry x="16" y="50" width="1079" height="331" as="geometry" />
        </mxCell>
        <mxCell id="node4" value="&lt;p style=&quot;margin:0px;margin-top:4px;text-align:center;&quot;&gt;&lt;b&gt;SearchUIKt&lt;/b&gt;&lt;/p&gt;&lt;hr size=&quot;1&quot;/&gt;&lt;p style=&quot;margin:0 0 0 4px;line-height:1.6;&quot;&gt;+ StoredLocationChip(StoredLocation, () -&amp;gt; Unit): Unit&lt;br/&gt;+ StoredLocationChipGroup(List&amp;lt;StoredLocation&amp;gt;, (Location) -&amp;gt; Unit): Unit&lt;br/&gt;+ SearchBox(Modifier, String, (String) -&amp;gt; Unit, (FocusState) -&amp;gt; Unit): Unit&lt;br/&gt;+ SearchResults(): Unit&lt;br/&gt;+ SearchUI(): Unit&lt;br/&gt;+ SearchResultItem(Location, () -&amp;gt; Unit): Unit&lt;/p&gt;" style="verticalAlign=top;align=left;overflow=fill;fontSize=14;fontFamily=Helvetica;html=1;rounded=0;shadow=0;comic=0;labelBackgroundColor=none;strokeWidth=1;" vertex="1" parent="7H51laaHmQexabOe8FZq-1">
          <mxGeometry x="15" y="1037" width="490" height="180" as="geometry" />
        </mxCell>
        <mxCell id="node6" value="&lt;p style=&quot;margin:0px;margin-top:4px;text-align:center;&quot;&gt;&lt;b&gt;SettingsUIKt&lt;/b&gt;&lt;/p&gt;&lt;hr size=&quot;1&quot;/&gt;&lt;p style=&quot;margin:0 0 0 4px;line-height:1.6;&quot;&gt;+ DialogBox(String, SettingsViewModel, Modifier): Unit&lt;br/&gt;+ LocationList(SettingsViewModel, Modifier): Unit&lt;br/&gt;+ CardIcon(Int): Unit&lt;br/&gt;+ SettingsSearchBar(String, Int, Modifier): Unit&lt;br/&gt;+ SettingsSearchBox(Modifier, String, String, (String) -&amp;gt; Unit, (FocusState) -&amp;gt; Unit): Unit&lt;br/&gt;+ SettingsUI(Modifier): Unit&lt;br/&gt;+ SettingsNameBox(Modifier, String, String, (String) -&amp;gt; Unit, (FocusState) -&amp;gt; Unit): Unit&lt;br/&gt;+ SettingsSearchColumn(String, Int): Unit&lt;br/&gt;+ LocationItemResult(Int, String, String): Unit&lt;br/&gt;+ OtherDialog(Int, SettingsViewModel, Modifier): Unit&lt;/p&gt;" style="verticalAlign=top;align=left;overflow=fill;fontSize=14;fontFamily=Helvetica;html=1;rounded=0;shadow=0;comic=0;labelBackgroundColor=none;strokeWidth=1;" vertex="1" parent="7H51laaHmQexabOe8FZq-1">
          <mxGeometry x="15" y="751" width="570" height="270" as="geometry" />
        </mxCell>
      </root>
    </mxGraphModel>
  </diagram>
</mxfile>
